<?xml version="1.0" encoding="UTF-8" standalone="no"?>
<svg
   xmlns:ns="&amp;#38;ns_sfw;"
   xmlns:dc="http://purl.org/dc/elements/1.1/"
   xmlns:cc="http://creativecommons.org/ns#"
   xmlns:rdf="http://www.w3.org/1999/02/22-rdf-syntax-ns#"
   xmlns:svg="http://www.w3.org/2000/svg"
   xmlns="http://www.w3.org/2000/svg"
   xmlns:sodipodi="http://sodipodi.sourceforge.net/DTD/sodipodi-0.dtd"
   xmlns:inkscape="http://www.inkscape.org/namespaces/inkscape"
   version="1.0"
   id="Camada_1"
   x="0px"
   y="0px"
   viewBox="0 0 1080 1080"
   style="enable-background:new 0 0 1080 1080;"
   xml:space="preserve"
   sodipodi:docname="balloon-art-01.svg"
   inkscape:version="1.0 (unknown)"
   inkscape:export-filename="balloon-art-01.png"
   inkscape:export-xdpi="96"
   inkscape:export-ydpi="96"><defs
   id="defs41">
	
	

		
		
		
		
		
		
		
		
		
		
		
		
	</defs><sodipodi:namedview
   inkscape:document-rotation="0"
   pagecolor="#474747"
   bordercolor="#666666"
   borderopacity="1"
   objecttolerance="10"
   gridtolerance="10"
   guidetolerance="10"
   inkscape:pageopacity="0"
   inkscape:pageshadow="2"
   inkscape:window-width="1366"
   inkscape:window-height="712"
   id="namedview39"
   showgrid="false"
   inkscape:pagecheckerboard="false"
   inkscape:zoom="0.35813649"
   inkscape:cx="592.93688"
   inkscape:cy="552.95836"
   inkscape:window-x="0"
   inkscape:window-y="0"
   inkscape:window-maximized="1"
   inkscape:current-layer="Camada_1" />
<style
   type="text/css"
   id="style2">
	.st0{fill:#29ABE2;stroke:#000000;stroke-width:1.2738;stroke-miterlimit:10;}
	.st1{fill:none;stroke:#F15A24;stroke-width:5.0951;stroke-miterlimit:10;}
	.st2{fill:#FFFF00;}
	.st3{fill:#FF0000;stroke:#FF0000;stroke-width:0.3184;stroke-linejoin:round;stroke-miterlimit:10;}
	.st4{fill:#F15A24;stroke:#39B54A;stroke-width:1.2738;stroke-miterlimit:10;}
	.st5{fill:#FBB03B;}
	.st6{fill:#FFFFFF;stroke:#FFFFFF;stroke-width:21.6541;stroke-miterlimit:10;}
	.st7{fill:#FFFFFF;stroke:#FFFFFF;stroke-width:17.8328;stroke-linejoin:round;stroke-miterlimit:10;}
</style>
<metadata
   id="metadata4">
	<ns:sfw>
		<ns:slices />
		<ns:sliceSourceBounds
   bottomLeftOrigin="true"
   height="1084"
   width="1084"
   x="-0.6"
   y="-1083.3" />
	</ns:sfw>
<rdf:RDF><cc:Work
     rdf:about=""><dc:format>image/svg+xml</dc:format><dc:type
       rdf:resource="http://purl.org/dc/dcmitype/StillImage" /><dc:title /></cc:Work></rdf:RDF></metadata>
<g
   id="g905"
   style="stroke:none;fill:#b3b3b3"><path
     style="color:#000000;font-style:normal;font-variant:normal;font-weight:normal;font-stretch:normal;font-size:medium;line-height:normal;font-family:sans-serif;font-variant-ligatures:normal;font-variant-position:normal;font-variant-caps:normal;font-variant-numeric:normal;font-variant-alternates:normal;font-variant-east-asian:normal;font-feature-settings:normal;font-variation-settings:normal;text-indent:0;text-align:start;text-decoration:none;text-decoration-line:none;text-decoration-style:solid;text-decoration-color:#000000;letter-spacing:normal;word-spacing:normal;text-transform:none;writing-mode:lr-tb;direction:ltr;text-orientation:mixed;dominant-baseline:auto;baseline-shift:baseline;text-anchor:start;white-space:normal;shape-padding:0;shape-margin:0;inline-size:0;clip-rule:nonzero;display:inline;overflow:visible;visibility:visible;isolation:auto;mix-blend-mode:normal;color-interpolation:sRGB;color-interpolation-filters:linearRGB;solid-color:#000000;solid-opacity:1;vector-effect:none;fill:#b3b3b3;fill-opacity:1;fill-rule:nonzero;stroke:none;stroke-width:5.0951;stroke-linecap:butt;stroke-linejoin:miter;stroke-miterlimit:10;stroke-dasharray:none;stroke-dashoffset:0;stroke-opacity:1;color-rendering:auto;image-rendering:auto;shape-rendering:auto;text-rendering:auto;enable-background:accumulate;stop-color:#000000;stop-opacity:1;opacity:1"
     d="M 293.01562 853.10156 C 287.95991 866.51468 286.83455 879.98134 289.2207 891.12109 C 291.60685 902.26085 297.65094 911.25631 307 914.7832 L 308.79883 910.01562 C 301.44789 907.24251 296.34198 900.03993 294.20312 890.05469 C 292.06427 880.06944 293.03892 867.48532 297.7832 854.89844 L 293.01562 853.10156 z "
     id="path914" /><path
     style="color:#000000;font-style:normal;font-variant:normal;font-weight:normal;font-stretch:normal;font-size:medium;line-height:normal;font-family:sans-serif;font-variant-ligatures:normal;font-variant-position:normal;font-variant-caps:normal;font-variant-numeric:normal;font-variant-alternates:normal;font-variant-east-asian:normal;font-feature-settings:normal;font-variation-settings:normal;text-indent:0;text-align:start;text-decoration:none;text-decoration-line:none;text-decoration-style:solid;text-decoration-color:#000000;letter-spacing:normal;word-spacing:normal;text-transform:none;writing-mode:lr-tb;direction:ltr;text-orientation:mixed;dominant-baseline:auto;baseline-shift:baseline;text-anchor:start;white-space:normal;shape-padding:0;shape-margin:0;inline-size:0;clip-rule:nonzero;display:inline;overflow:visible;visibility:visible;isolation:auto;mix-blend-mode:normal;color-interpolation:sRGB;color-interpolation-filters:linearRGB;solid-color:#000000;solid-opacity:1;vector-effect:none;fill:#b3b3b3;fill-opacity:1;fill-rule:nonzero;stroke:none;stroke-width:5.0951;stroke-linecap:butt;stroke-linejoin:miter;stroke-miterlimit:10;stroke-dasharray:none;stroke-dashoffset:0;stroke-opacity:1;color-rendering:auto;image-rendering:auto;shape-rendering:auto;text-rendering:auto;enable-background:accumulate;stop-color:#000000;stop-opacity:1;opacity:1"
     d="M 246.13867 859.64648 L 242.26172 862.95312 C 250.97438 873.1663 256.15452 884.6768 257.52539 894.80469 C 258.89626 904.93257 256.53368 913.4561 250.54688 918.5625 L 253.85352 922.4375 C 261.46671 915.9439 264.10335 905.41821 262.57422 894.12109 C 261.04509 882.82398 255.42601 870.53331 246.13867 859.64648 z "
     id="path918" /><path
     id="path24"
     d="m 317.3,942.4 c 0.4,4 -1,7.3 -3.7,7.6 l -59.3,5.4 c -2.7,0.2 -5.2,-2.8 -5.5,-6.7 l -3,-32.6 c -0.4,-4 1.5,-7.4 4.2,-7.6 l 59.3,-5.4 c 2.7,-0.2 4.6,2.8 5,6.8 z"
     class="st4"
     style="stroke:none;fill:#b3b3b3" /><path
     style="color:#000000;font-style:normal;font-variant:normal;font-weight:normal;font-stretch:normal;font-size:medium;line-height:normal;font-family:sans-serif;font-variant-ligatures:normal;font-variant-position:normal;font-variant-caps:normal;font-variant-numeric:normal;font-variant-alternates:normal;font-variant-east-asian:normal;font-feature-settings:normal;font-variation-settings:normal;text-indent:0;text-align:start;text-decoration:none;text-decoration-line:none;text-decoration-style:solid;text-decoration-color:#000000;letter-spacing:normal;word-spacing:normal;text-transform:none;writing-mode:lr-tb;direction:ltr;text-orientation:mixed;dominant-baseline:auto;baseline-shift:baseline;text-anchor:start;white-space:normal;shape-padding:0;shape-margin:0;inline-size:0;clip-rule:nonzero;display:inline;overflow:visible;visibility:visible;isolation:auto;mix-blend-mode:normal;color-interpolation:sRGB;color-interpolation-filters:linearRGB;solid-color:#000000;solid-opacity:1;vector-effect:none;fill:#b3b3b3;fill-opacity:1;fill-rule:nonzero;stroke:none;stroke-width:5.0951;stroke-linecap:butt;stroke-linejoin:miter;stroke-miterlimit:10;stroke-dasharray:none;stroke-dashoffset:0;stroke-opacity:1;color-rendering:auto;image-rendering:auto;shape-rendering:auto;text-rendering:auto;enable-background:accumulate;stop-color:#000000;stop-opacity:1;opacity:1"
     d="M 290.33984 888.36523 L 260.14062 891.46484 L 260.66016 896.53516 L 290.85938 893.43359 L 290.33984 888.36523 z "
     id="path910" /><rect
     style="stroke-width:0.999969;stroke:none;fill:#b3b3b3"
     id="rect28"
     height="12.699601"
     width="6.3997993"
     class="st5"
     transform="rotate(-6.3155147)"
     y="910.71436"
     x="172.21512" /></g><g
   id="g16"
   style="fill:#666666">
			<path
   class="st2"
   d="m 383.1,661.9 c 0,-23.5 -5.4,-46.9 -15.9,-68 -10,-20 -24.5,-37.8 -42.3,-51.3 -17.8,-13.5 -38.8,-22.8 -60.9,-26.4 -24.8,-4.1 -50.7,-1.3 -74,8.2 -23.6,9.6 -44.3,25.9 -59.7,46.2 -16.9,22.3 -27.1,49.3 -29.6,77.1 -2.4,26 1.9,52.5 12.6,76.4 9.9,22.1 25.2,41.8 44.4,56.6 10.5,8.1 22.2,14.7 34.5,19.5 1.8,0.7 3.6,1.3 5.4,2 0.9,0.3 1.8,0.6 2.7,0.9 1.2,0.4 1.9,1.1 2.8,2 2.8,2.5 5.5,5 8.2,7.5 4.1,3.8 8.1,7.7 11.6,12 2.6,3.3 4.8,6.9 6.1,10.9 1.4,4.2 1.9,8.5 2,12.9 0.3,7.7 -1.2,17.6 4.6,23.8 3.5,3.8 8.9,5.3 13.8,6.1 6,0.9 12,1.5 18.1,1.6 9.8,0.1 20.3,-1.8 27.5,-9 9.2,-9.3 11,-23.5 11.7,-36 0.7,-12.8 -0.1,-27 7.3,-38.2 3.6,-5.5 7.7,-10.6 11.6,-15.8 0.9,-1.2 2.4,-2 3.5,-3 1.3,-1 2.5,-2.1 3.7,-3.2 2.3,-2.1 4.6,-4.2 6.8,-6.4 8.9,-8.9 16.6,-19 22.9,-29.9 13.2,-22.8 20.2,-48.9 20.4,-75.2 0.2,-0.5 0.2,-0.9 0.2,-1.3 z"
   id="path12"
   style="fill:#666666" />
			<path
   class="st2"
   d="m 268,880.4 c -6.7,0 -13.7,-0.6 -20.3,-1.9 -4.9,-0.9 -10,-2.8 -13.2,-6.8 -2.5,-3.2 -3.4,-7.2 -3.8,-11.1 -0.5,-5.8 0,-11.7 -0.7,-17.5 -0.5,-4 -1.5,-7.9 -3.4,-11.5 -2,-4 -4.9,-7.5 -7.9,-10.8 -4.4,-4.7 -9.1,-9 -13.9,-13.3 -0.7,-0.6 -1.4,-1.3 -2.1,-1.9 -0.7,-0.6 -1.4,-1.5 -2.3,-1.8 -2,-0.6 -3.9,-1.3 -5.8,-2 -3.7,-1.4 -7.4,-2.9 -11,-4.6 -22.7,-10.6 -42.4,-27.2 -56.8,-47.6 -14.2,-20.2 -23.2,-43.8 -26.2,-68.3 -3.4,-27.6 0.5,-56 11.8,-81.5 11,-24.7 28.7,-46.5 50.9,-61.8 21.1,-14.5 46,-23 71.6,-24.2 23,-1.1 46.1,3.7 66.8,13.8 20,9.8 37.5,24.4 51.1,42.1 13.9,18.2 23.5,39.6 27.9,62.1 4.9,24.8 3.7,50.9 -3.7,75.1 -7.5,24.6 -21.3,47.1 -40,64.7 -2.4,2.2 -4.8,4.4 -7.3,6.4 -1.2,1 -2.8,1.9 -3.7,3.1 -1.2,1.6 -2.4,3.2 -3.6,4.7 -3.9,5.1 -8.3,10.3 -10.9,16.3 -2.7,6.5 -3.4,13.6 -3.8,20.6 -0.4,7.6 -0.5,15.3 -1.6,22.9 -1.4,9.8 -4.7,20.4 -12.5,27.1 -6.9,6.2 -16.5,7.7 -25.6,7.7 z M 241.6,515 c -25.6,0 -51,7.3 -72.7,21 -22.7,14.3 -41.1,35.2 -52.9,59.3 -12.3,25.2 -17.2,53.7 -14.5,81.6 2.4,24.6 10.7,48.6 24.5,69.1 13.7,20.5 32.7,37.4 54.9,48.5 3.5,1.8 7.2,3.4 10.8,4.8 1.8,0.7 3.5,1.4 5.3,2 1.6,0.5 3.9,0.8 5.1,1.9 5.2,4.6 10.4,9.3 15.3,14.2 6.3,6.3 11.7,13.3 13.5,22.2 1.2,5.9 0.8,11.9 1,17.9 0.1,3.9 0.4,8.1 2.4,11.6 2.2,4 6.3,6.2 10.5,7.4 3.4,1 6.9,1.4 10.3,1.7 3.4,0.4 6.7,0.7 10.1,0.8 10.6,0.3 22.2,-1.2 29.8,-9.3 9.3,-9.8 10.6,-24.8 11.2,-37.6 0.3,-7.3 0.4,-14.8 1.8,-22 0.7,-3.4 1.6,-6.7 3.1,-9.8 1.3,-2.7 3,-5.2 4.7,-7.6 2.1,-3 4.4,-5.9 6.6,-8.8 1,-1.4 2,-3 3.1,-4.2 1.1,-1.1 2.5,-2 3.7,-3 5,-4.1 9.7,-8.6 14.1,-13.4 17.5,-18.9 29.6,-42.4 35.3,-67.5 5.5,-24.3 5,-50.1 -1.5,-74.2 -6,-22 -17,-42.5 -32,-59.6 -14.7,-16.7 -33.3,-29.9 -54.1,-38 -15.7,-5.8 -32.5,-9 -49.4,-9 z"
   id="path14"
   style="fill:#666666" />
		</g><g
   id="g898"
   style="stroke:none"><path
     style="fill:#808080;stroke:none"
     id="path18"
     d="m 142.1,557.3 c 0,0 -34.8,99.8 19.7,220.3 8.9,19.7 36.4,22.5 60.6,46.3 9.7,9.5 4.9,46.4 12.6,46.4 7.6,0 19.5,-40.5 6.6,-55.7 -12.9,-15.3 -43.5,-65.7 -48.6,-78.7 -5.1,-13 -31.4,-70 -38.2,-107.3 -7.7,-41.8 -12.7,-71.3 -12.7,-71.3 z"
     class="st3" /><path
     style="fill:#808080;stroke:none"
     id="path20"
     d="m 219.8,516.8 c 0,0 3.7,200.2 45.4,362.4 0.3,1.3 6,1.3 6,1.3 0,0 6.6,-323.2 -48.6,-365.1 -0.7,-0.6 -1.5,1 -2.8,1.4 z"
     class="st3" /><path
     style="fill:#808080;stroke:none"
     id="path22"
     d="m 313.2,535.5 c 0,0 99,90.9 41.3,210 -15,30.9 -33.6,30.3 -45.5,60.4 -4.4,11.3 2.4,46.3 -8.8,50 -7.3,2.4 -21.9,-36 -13.4,-54.1 8.5,-18.1 25,-74.7 26.6,-88.6 1.6,-13.9 12.2,-75.7 9.2,-113.5 -3.2,-42.4 -9.4,-64.2 -9.4,-64.2 z"
     class="st3" /></g><path
   class="st6"
   d="m 1011.1,592.3 h -5.1 c 2.8,-12.7 0.7,-25 -6.9,-35.3 -12.6,-17.1 -35.3,-22.6 -50.8,-11.2 -2.2,1.6 -4.2,3 -5.8,5.1 0,-0.4 0,-1.1 0,-1.5 0,-44.8 -36.6,-81.2 -81.7,-81.2 -38.8,0 -71.2,26.7 -79.6,62.7 -8.5,-4 -18.4,-6.3 -28.8,-6.3 -32.9,0 -59.6,24.4 -59.6,52.3 0,4.7 0.8,9.1 2.2,15.5 h -2.6 c -18.3,0 -33.1,18.3 -33.1,41.4 0,23.1 14.8,41.4 33.1,41.4 h 318.7 c 18.3,0 33.1,-18.3 33.1,-41.4 0,-23.2 -14.8,-41.5 -33.1,-41.5 z"
   id="path30"
   style="fill:#b3b3b3;stroke:none" /><path
   class="st7"
   d="m 924,286 h -8.5 c 4.7,-17.8 1.1,-40.2 -11.4,-57.2 -20.9,-28.4 -58.6,-36.9 -84.3,-18 -3.7,2.7 -6.9,5.4 -9.7,8.8 0,-0.7 0,-1.6 0,-2.4 0,-74.4 -60.8,-134.8 -135.8,-134.8 -64.4,0 -118.4,44.4 -132.3,104.2 -14.2,-6.6 -30.5,-10.4 -47.8,-10.4 -54.7,0 -99,39.2 -99,85.5 0,7.9 1.3,16.7 3.7,24.4 h -4.3 c -30.4,0 -55,31.1 -55,69.4 0,38.3 24.6,69.4 55,69.4 H 924 c 30.4,0 55,-31.1 55,-69.4 0,-38.3 -24.6,-69.5 -55,-69.5 z"
   id="path32"
   style="fill:#b3b3b3;stroke:none" />

</svg>
