<?xml version="1.0" encoding="UTF-8" standalone="no"?>
<svg
   xmlns:ns="&amp;#38;#38;#38;ns_sfw;"
   xmlns:dc="http://purl.org/dc/elements/1.1/"
   xmlns:cc="http://creativecommons.org/ns#"
   xmlns:rdf="http://www.w3.org/1999/02/22-rdf-syntax-ns#"
   xmlns:svg="http://www.w3.org/2000/svg"
   xmlns="http://www.w3.org/2000/svg"
   xmlns:sodipodi="http://sodipodi.sourceforge.net/DTD/sodipodi-0.dtd"
   xmlns:inkscape="http://www.inkscape.org/namespaces/inkscape"
   version="1.0"
   id="Camada_1"
   x="0px"
   y="0px"
   viewBox="0 0 1080 1080"
   style="enable-background:new 0 0 1080 1080;"
   xml:space="preserve"
   sodipodi:docname="balloon-art-02.svg"
   inkscape:version="1.0 (unknown)"
   inkscape:export-filename="balloon-art-02.png"
   inkscape:export-xdpi="96"
   inkscape:export-ydpi="96"><defs
   id="defs41">
	
	

		
		
		
		
		
		
		
		
		
		
		
		
	</defs><sodipodi:namedview
   inkscape:document-rotation="0"
   pagecolor="#474747"
   bordercolor="#666666"
   borderopacity="1"
   objecttolerance="10"
   gridtolerance="10"
   guidetolerance="10"
   inkscape:pageopacity="0"
   inkscape:pageshadow="2"
   inkscape:window-width="1366"
   inkscape:window-height="712"
   id="namedview39"
   showgrid="false"
   inkscape:pagecheckerboard="false"
   inkscape:zoom="0.35813649"
   inkscape:cx="521.80586"
   inkscape:cy="560.45667"
   inkscape:window-x="0"
   inkscape:window-y="0"
   inkscape:window-maximized="1"
   inkscape:current-layer="Camada_1" />
<style
   type="text/css"
   id="style2">
	.st0{fill:#29ABE2;stroke:#000000;stroke-width:1.2738;stroke-miterlimit:10;}
	.st1{fill:none;stroke:#F15A24;stroke-width:5.0951;stroke-miterlimit:10;}
	.st2{fill:#FFFF00;}
	.st3{fill:#FF0000;stroke:#FF0000;stroke-width:0.3184;stroke-linejoin:round;stroke-miterlimit:10;}
	.st4{fill:#F15A24;stroke:#39B54A;stroke-width:1.2738;stroke-miterlimit:10;}
	.st5{fill:#FBB03B;}
	.st6{fill:#FFFFFF;stroke:#FFFFFF;stroke-width:21.6541;stroke-miterlimit:10;}
	.st7{fill:#FFFFFF;stroke:#FFFFFF;stroke-width:17.8328;stroke-linejoin:round;stroke-miterlimit:10;}
</style>
<metadata
   id="metadata4">
	<ns:sfw>
		<ns:slices />
		<ns:sliceSourceBounds
   bottomLeftOrigin="true"
   height="1084"
   width="1084"
   x="-0.6"
   y="-1083.3" />
	</ns:sfw>
<rdf:RDF><cc:Work
     rdf:about=""><dc:format>image/svg+xml</dc:format><dc:type
       rdf:resource="http://purl.org/dc/dcmitype/StillImage" /><dc:title /></cc:Work></rdf:RDF></metadata>
<path
   class="st6"
   d="m 1011.1,592.3 h -5.1 c 2.8,-12.7 0.7,-25 -6.9,-35.3 -12.6,-17.1 -35.3,-22.6 -50.8,-11.2 -2.2,1.6 -4.2,3 -5.8,5.1 0,-0.4 0,-1.1 0,-1.5 0,-44.8 -36.6,-81.2 -81.7,-81.2 -38.8,0 -71.2,26.7 -79.6,62.7 -8.5,-4 -18.4,-6.3 -28.8,-6.3 -32.9,0 -59.6,24.4 -59.6,52.3 0,4.7 0.8,9.1 2.2,15.5 h -2.6 c -18.3,0 -33.1,18.3 -33.1,41.4 0,23.1 14.8,41.4 33.1,41.4 h 318.7 c 18.3,0 33.1,-18.3 33.1,-41.4 0,-23.2 -14.8,-41.5 -33.1,-41.5 z"
   id="path30"
   style="fill:#b3b3b3;stroke:none" /><path
   class="st7"
   d="m 924,286 h -8.5 c 4.7,-17.8 1.1,-40.2 -11.4,-57.2 -20.9,-28.4 -58.6,-36.9 -84.3,-18 -3.7,2.7 -6.9,5.4 -9.7,8.8 0,-0.7 0,-1.6 0,-2.4 0,-74.4 -60.8,-134.8 -135.8,-134.8 -64.4,0 -118.4,44.4 -132.3,104.2 -14.2,-6.6 -30.5,-10.4 -47.8,-10.4 -54.7,0 -99,39.2 -99,85.5 0,7.9 1.3,16.7 3.7,24.4 h -4.3 c -30.4,0 -55,31.1 -55,69.4 0,38.3 24.6,69.4 55,69.4 H 924 c 30.4,0 55,-31.1 55,-69.4 0,-38.3 -24.6,-69.5 -55,-69.5 z"
   id="path32"
   style="fill:#b3b3b3;stroke:none" />

<g
   transform="translate(-500.62046,-317.33621)"
   id="g878"><path
     d="m 788.81192,1226.5931 c 4.308,-1.951 13.434,-8.286 13.434,-8.286 150.83,-88.167 150.82,-139.82 153.48,-156.31 1.928,-11.983 17.941,-83.38102 -22,-128.00002 -34.168,-38.167 -54,-36 -54,-36 0,0 -12.1,5.988 -21.307,-5.485 -8.373,-10.432 -19.705,-12.632 -27.984,-5.907 -6.805,5.528 -17.475,-2.875 -25.709,-3.607 -35.022,-3.117 -33.532,2.741 -43.5,2.418 -28.334,-0.918 -36.383,14.531 -43.5,17.582 -18.432,7.899 -66.346,31.659 -70.326,92.998 -0.552,8.50202 -8.708,41.32702 2.373,67.10402 17.787,41.375 32.104,60.108 51.278,88.753 19.174,28.645 46.663,63.47 46.663,63.47 0,0 3.134,3.353 3.243,4.815 0.249,3.33 9.762,6.093 21.534,7.658 6.319,0.8399 10.79,1.303 16.326,-1.202 z"
     fill="#ff8c00"
     id="path2"
     style="fill:#666666;fill-opacity:1;fill-rule:evenodd" /><g
     id="g863"><path
       style="fill:#808080;fill-opacity:1;fill-rule:evenodd"
       d="m 956.72192,1062.0031 c -2.586,-84.08202 -62.814,-110.52002 -119,-141.00002 -56.081,-6.3 -97.223,12.67 -128,42 -22.754,21.685 -43.708,53.59602 -44,90.00002 -0.332,41.403 19.17,73.949 38,101 -25.14,-32.089 -60.967,-80.434 -59,-134 1.025,-27.92002 18.743,-57.38202 34,-72.00002 9.787,-9.377 25.943,-17.864 41,-25 33.965,-16.096 75.278,-13.443 115,-3 -27.004,-17.971 -76.451,-32.383 -116,-17 28.142,-34.02904 94.458,-12.773 116,14 -5.141,-15.859 -13.402,-28.598 -29,-34 22.862,-11.49204 35.036,10.891 34,33 3.877,-15.937 26.834,-36.451 41,-18 -15.205,4.796 -27.611,12.39 -39,21 27.182,-15.863 82.359,-14.651 93,15 -19.838,-11.938 -57.875,-20.658 -92,-13 59.771,10.562 120.19,22.316 121,90.00002 0.3561,29.659 -4.886,36.447 -7,51 z"
       id="path4" /><path
       style="fill:#808080;fill-opacity:1;fill-rule:evenodd"
       d="m 789.89192,1231.0031 c 0.405,-0.9731 -2.472,-0.467 0.925,-4.404 58.092,-36.351 136.33,-75.241 128.91,-171.6 -2.557,-33.195 -19.268,-58.24402 -35,-81.00002 -13.201,-19.093 -30.139,-41.582 -46,-53 12.691,39.307 30.994,89.39202 26,143.00002 -2.838,30.465 -17.383,61.369 -30,87 -5.881,11.944 -43.109,90.263 -63.023,74.984 6.845,-107.87 4.952,-232.10002 55.857,-294.15002 1.766,-2.152 7,-6 11.166,-10.834 -33.722,9.425 -64.235,22.035 -85,44 -21.179,22.401 -39.113,62.14402 -41,100.00002 -1.723,34.578 7.962,59.46 16,87 6.503,22.279 26.706,68.141 27.321,71.992 0.554,3.473 32.179,11.008 33.845,7.009 z m -12.167,3.999"
       id="path6" /></g><g
     id="g868"
     style="fill:#b3b3b3;fill-opacity:1"><path
       style="fill:#b3b3b3;fill-opacity:1;fill-rule:evenodd"
       id="path10"
       fill="#54c3c9"
       d="m 783.01192,1271.3831 c -0.846,5.437 -6.84,9.018 -13.389,8 l -13.832,-2.151 c -6.549,-1.018 -11.174,-6.248 -10.328,-11.686 l 2.805,-18.047 c 0.8461,-5.437 6.84,-9.019 13.389,-8.001 l 13.832,2.151 c 6.549,1.018 11.174,6.25 10.328,11.687 z" /><ellipse
       style="fill:#b3b3b3;fill-opacity:1;fill-rule:evenodd;stroke-width:0.999977"
       id="ellipse12"
       fill="#ffffff"
       ry="6.9988375"
       rx="15.401642"
       cy="1109.7437"
       cx="959.20074"
       transform="rotate(9.3116086)" /><path
       style="fill:#b3b3b3;fill-opacity:1;fill-rule:evenodd"
       id="path14-3"
       fill="#54c3c9"
       d="m 790.81192,1226.5931 c 0,0 3.278,11.233 -21.258,8.403 -21.667,-2.499 -16.603,-14.859 -16.603,-14.859 12.683,6.693 22.936,6.54 37.861,6.456 z" /></g></g></svg>
