<?xml version="1.0" encoding="UTF-8" standalone="no"?>
<svg
   xmlns:dc="http://purl.org/dc/elements/1.1/"
   xmlns:cc="http://creativecommons.org/ns#"
   xmlns:rdf="http://www.w3.org/1999/02/22-rdf-syntax-ns#"
   xmlns:svg="http://www.w3.org/2000/svg"
   xmlns="http://www.w3.org/2000/svg"
   xmlns:sodipodi="http://sodipodi.sourceforge.net/DTD/sodipodi-0.dtd"
   xmlns:inkscape="http://www.inkscape.org/namespaces/inkscape"
   version="1.1"
   id="svg2"
   xml:space="preserve"
   width="1230.8361"
   height="625.42401"
   viewBox="0 0 1230.8361 625.42401"
   sodipodi:docname="birds-art-01.svg"
   inkscape:version="1.0 (unknown)"
   inkscape:export-filename="birds-art-01.png"
   inkscape:export-xdpi="96"
   inkscape:export-ydpi="96"><metadata
     id="metadata8"><rdf:RDF><cc:Work
         rdf:about=""><dc:format>image/svg+xml</dc:format><dc:type
           rdf:resource="http://purl.org/dc/dcmitype/StillImage" /><dc:title /></cc:Work></rdf:RDF></metadata><defs
     id="defs6"><clipPath
       clipPathUnits="userSpaceOnUse"
       id="clipPath18"><path
         d="M 0,469.068 H 923.127 V 0 H 0 Z"
         id="path16" /></clipPath></defs><sodipodi:namedview
     inkscape:document-rotation="0"
     pagecolor="#ffffff"
     bordercolor="#666666"
     borderopacity="1"
     objecttolerance="10"
     gridtolerance="10"
     guidetolerance="10"
     inkscape:pageopacity="0"
     inkscape:pageshadow="2"
     inkscape:window-width="1366"
     inkscape:window-height="712"
     id="namedview4"
     showgrid="false"
     inkscape:zoom="0.61844029"
     inkscape:cx="265.90109"
     inkscape:cy="312.90183"
     inkscape:window-x="0"
     inkscape:window-y="0"
     inkscape:window-maximized="1"
     inkscape:current-layer="g10" /><g
     id="g10"
     inkscape:groupmode="layer"
     inkscape:label="crane-bird-flying-4567923"
     transform="matrix(1.3333333,0,0,-1.3333333,0,625.424)"><g
       id="g12"
       style="fill:#b3b3b3"><g
         id="g14"
         clip-path="url(#clipPath18)"
         style="fill:#b3b3b3"><g
           id="g20"
           transform="translate(663.3165,333.4456)"
           style="fill:#b3b3b3"><path
             d="M 0,0 C -1.435,-0.061 -1.65,-0.681 -1.442,-1.58 -1.424,-1.661 -1.227,-1.7 -1.018,-1.807 -0.724,-1.285 -0.429,-0.761 0,0 m -111.617,-5.83 c 2.235,-0.019 3.742,0.236 5.293,1.114 1.07,0.607 2.792,0.226 4.189,0.039 0.976,-0.131 1.678,-0.05 2.628,0.379 1.146,0.517 2.747,0.659 3.949,0.296 3.178,-0.962 6.136,0.237 9.178,0.512 4.707,0.426 9.33,2.025 14.139,0.949 0.468,-0.105 1.049,-0.027 1.397,-0.281 1.602,-1.169 3.163,-0.45 4.742,-0.032 1.917,0.508 3.814,1.333 5.752,1.444 2.004,0.116 3.839,1.351 5.917,0.758 0.351,-0.1 0.818,-0.008 1.169,0.14 4.323,1.816 8.912,1.367 13.41,1.523 2.5,0.087 5.15,0.146 7.487,-0.574 2.422,-0.748 4.889,-1.016 7.318,-1.564 1.375,-0.31 2.85,-0.165 4.275,-0.28 1.14,-0.093 2.417,0.373 3.325,-0.83 0.162,-0.214 0.754,-0.276 1.067,-0.171 0.773,0.26 1.32,0.349 1.714,-0.598 0.082,-0.197 1.049,-0.239 1.468,-0.047 1.945,0.89 4.167,1.045 5.958,2.398 0.546,0.413 1.525,0.281 2.31,0.341 1.774,0.136 3.201,0.516 3.702,2.643 0.512,2.18 2.624,3.051 4.252,4.383 C 3.363,6.016 3.66,5.408 4.081,4.548 2.422,1.86 0.686,-0.954 -1.223,-4.047 c 0.918,-0.437 1.559,-0.914 2.263,-1.039 1.214,-0.217 2.467,-0.216 3.976,-0.326 0.831,1.432 2.544,1.199 4.057,1.036 4.341,-0.467 8.739,-0.791 12.962,-1.807 3.024,-0.728 6.299,-0.794 9.054,-2.683 0.905,-0.621 2.272,-0.533 3.382,-0.907 0.551,-0.186 0.999,-0.684 1.494,-1.04 0.229,-0.166 0.477,-0.495 0.683,-0.471 1.882,0.221 2.485,-1.061 2.998,-2.58 0.505,0.327 0.953,0.618 1.561,1.012 0.979,-0.834 1.881,-1.851 2.998,-2.494 1.275,-0.734 2.731,-1.55 4.127,-1.588 2.529,-0.067 4.908,-0.574 7.214,-1.45 4.985,-1.893 9.946,-3.852 14.878,-5.878 1.419,-0.582 2.911,-0.185 4.342,-0.714 1.396,-0.516 2.915,-0.591 4.18,-1.596 0.772,-0.612 1.836,-0.855 2.888,-1.315 -0.11,-0.569 -0.209,-1.079 -0.313,-1.614 0.316,-0.173 0.638,-0.35 1.089,-0.597 -2.555,-1.546 -5.317,-1.928 -8.052,-2.431 -1.486,-0.273 -2.984,-0.563 -4.412,-1.037 -4.505,-1.493 -9.145,-2.407 -13.842,-2.754 -4.577,-0.337 -9.054,0.703 -13.473,1.9 -1.685,0.456 -3.424,0.731 -5.152,0.998 -1.341,0.207 -2.712,0.214 -4.055,0.413 -3.472,0.516 -6.751,1.223 -9.791,3.414 -6.329,4.562 -13.513,7.242 -21.36,7.787 -2.213,0.153 -4.466,-0.069 -6.685,-0.281 -0.607,-0.059 -1.318,-0.586 -1.709,-1.104 -1.877,-2.484 -4.195,-4.367 -7.048,-5.609 -1.659,-0.723 -2.994,-1.866 -3.943,-3.393 -1.518,-2.439 -2.97,-4.919 -4.437,-7.389 -0.693,-1.167 -1.336,-2.366 -2.041,-3.525 -0.954,-1.571 -1.882,-3.088 -1.981,-5.056 -0.052,-1.045 -0.688,-2.13 -1.269,-3.067 -1.676,-2.702 -3.459,-5.338 -5.521,-8.492 0.265,1.137 0.391,1.821 0.586,2.485 0.653,2.236 1.16,4.479 0.867,6.843 -0.179,1.447 0.503,2.599 1.411,3.687 2.888,3.459 5.431,7.145 6.622,11.561 0.475,1.761 0.74,3.592 0.943,5.41 0.191,1.714 -0.163,3.291 -1.484,4.617 -0.651,0.654 -1.067,1.588 -1.442,2.458 -0.676,1.567 -1.817,2.535 -3.354,3.229 -5.404,2.441 -11.086,2.941 -16.893,2.467 -5.696,-0.465 -11.16,-1.914 -16.466,-4.038 -0.997,-0.4 -2.189,-0.536 -3.268,-0.461 -2.065,0.144 -4.132,0.434 -6.165,0.833 -2.521,0.495 -5.027,0.695 -7.608,0.674 -4.897,-0.04 -9.706,0.591 -14.272,2.617 -4.911,2.179 -9.678,4.572 -13.986,7.826 -1.205,0.911 -2.57,1.608 -3.838,2.441 -0.297,0.195 -0.493,0.542 -1.109,1.245"
             style="fill:#b3b3b3;fill-opacity:1;fill-rule:nonzero;stroke:none"
             id="path22" /></g><g
           id="g24"
           transform="translate(849.6173,459.5555)"
           style="fill:#b3b3b3"><path
             d="m 0,0 c -0.166,0.107 -0.332,0.214 -0.499,0.322 -1.601,-1.853 -3.202,-3.705 -5.016,-5.804 1,-0.439 1.598,-0.702 2.357,-1.036 C -2.039,-4.208 -1.02,-2.104 0,0 m -35.619,-58.805 c 0.349,2.601 0.903,5.158 0.618,7.849 -0.109,1.027 0.622,2.327 1.325,3.224 3.3,4.209 5.417,9.024 7.454,13.898 0.636,1.52 0.678,2.829 -0.492,4.202 -0.633,0.743 -0.98,1.84 -1.162,2.831 -0.36,1.977 -1.513,3.061 -3.337,3.678 -4.921,1.664 -9.995,2.196 -15.139,1.927 -6.761,-0.354 -13.243,-1.841 -19.456,-4.689 -1.77,-0.811 -4.077,-0.754 -6.108,-0.63 -3.996,0.244 -7.942,0.43 -11.92,-0.329 -3.842,-0.733 -7.659,-0.136 -11.379,0.93 -2.224,0.638 -4.39,1.478 -6.586,2.22 -2.641,0.892 -5.284,1.784 -7.931,2.66 -1.127,0.373 -2.267,0.707 -3.587,1.117 1.136,1.802 2.305,2.445 4.37,1.968 2.144,-0.495 4.428,-0.522 6.512,0.671 0.54,0.308 1.208,0.492 1.831,0.531 1.337,0.085 2.437,0.527 3.413,1.482 0.488,0.479 1.242,0.981 1.871,0.974 3.653,-0.04 6.399,2.514 9.764,3.27 3.716,0.834 7.31,1.96 11.255,1.868 5.27,-0.122 10.466,0.851 15.399,2.903 2.915,1.214 5.999,1.61 9.128,1.747 1.116,0.048 2.248,0.031 3.344,0.216 5.101,0.861 10.232,0.684 15.284,-0.045 3.421,-0.494 6.886,-1.237 9.998,-3.034 1.929,-1.114 4.027,-1.882 6.492,-2.045 0.393,0.757 0.772,1.53 1.191,2.281 0.789,1.413 1.442,1.862 2.909,1.399 2.117,-0.669 3.509,0.006 4.711,1.731 0.631,0.906 1.553,1.606 2.307,2.433 1.129,1.237 2.205,2.467 2.675,4.188 C -0.606,3.567 0.184,4.39 0.81,5.211 1.855,6.582 2.963,7.907 4.254,9.512 4.495,8.747 4.833,8.263 4.729,7.909 4.127,5.87 3.644,3.827 2.446,1.951 c -1.617,-2.536 -2.84,-5.325 -4.223,-8.009 -0.068,-0.131 -0.134,-0.377 -0.069,-0.447 1.275,-1.362 0.142,-2.466 -0.36,-3.647 -0.801,-1.884 -0.431,-2.437 1.584,-2.606 2.293,-0.192 4.643,-0.195 6.86,-0.731 6.412,-1.55 12.285,-4.355 17.628,-8.245 1.996,-1.453 4.116,-2.759 5.987,-4.357 2.166,-1.851 4.142,-3.927 6.157,-5.949 1.57,-1.576 3.019,-3.275 4.632,-4.803 0.597,-0.566 1.571,-0.712 2.266,-1.201 3.123,-2.202 6.308,-4.336 9.269,-6.741 1.704,-1.384 3.011,-3.255 4.524,-4.878 0.919,-0.986 2.114,-1.786 2.793,-2.907 1.065,-1.757 2.459,-3.013 4.134,-4.145 1.606,-1.085 2.427,-2.708 3.018,-4.675 0.481,-1.597 2.098,-2.864 3.249,-4.246 1.181,-1.42 2.408,-2.802 3.615,-4.199 -0.086,-0.139 -0.172,-0.278 -0.259,-0.417 -0.497,0.029 -1.05,-0.073 -1.484,0.108 -6.298,2.625 -12.905,4.15 -19.513,5.74 -6.154,1.482 -11.674,4.388 -16.271,8.813 -2.274,2.189 -5.263,2.966 -7.916,4.404 -1.052,0.571 -2.159,1.042 -3.233,1.575 -1.893,0.939 -3.284,2.296 -4.523,4.094 -6.332,9.182 -14.964,14.92 -26.065,16.789 -1.702,0.286 -3.024,0.114 -4.225,-1.36 -2.474,-3.037 -6.126,-3.946 -9.722,-4.734 -1.339,-0.293 -2.507,-0.68 -3.241,-1.78 -2.17,-3.249 -4.252,-6.556 -6.359,-9.847 -0.126,-0.196 -0.227,-0.445 -0.238,-0.674 -0.232,-4.835 -4.023,-7.789 -6.137,-11.627 z"
             style="fill:#b3b3b3;fill-opacity:1;fill-rule:nonzero;stroke:none"
             id="path26" /></g><g
           id="g28"
           transform="translate(422.2237,148.1927)"
           style="fill:#b3b3b3"><path
             d="m 0,0 c -2.196,-1.437 -3.526,-3.519 -4.417,-5.898 -0.106,-0.286 0.282,-1.066 0.517,-1.1 0.461,-0.068 1.262,0.082 1.421,0.395 C -1.42,-4.514 -0.218,-2.461 0,0 m -33.146,-63.447 c 0.331,2.273 0.839,4.539 0.934,6.822 0.074,1.769 0.485,3.141 1.665,4.538 4.728,5.605 6.397,12.014 4.525,19.213 -0.141,0.541 -0.399,1.062 -0.47,1.608 -0.514,3.951 -2.963,6.68 -5.897,8.97 -8.65,6.748 -18.252,11.116 -29.434,11.407 -1.08,0.029 -2.2,0.376 -3.212,0.792 -1.993,0.82 -3.911,1.821 -5.883,2.694 -4.086,1.806 -8.174,3.61 -12.286,5.358 -4.694,1.997 -8.398,5.287 -11.504,9.184 -3.426,4.297 -7.296,8.036 -11.844,11.097 -0.323,0.218 -0.592,0.514 -0.92,0.803 0.104,0.808 0.202,1.572 0.305,2.371 1.36,0.379 2.836,-1.579 4.021,0.686 0.937,-1.111 1.732,-1.98 2.44,-2.914 0.538,-0.708 1.15,-1.161 2.036,-0.851 2.366,0.829 4.418,-0.012 6.357,-1.218 1.267,-0.788 2.591,-1.016 4.05,-1.195 4.076,-0.502 8.105,-1.425 12.187,-1.814 2.403,-0.23 4.323,-1.573 6.57,-2.086 0.736,-0.168 1.619,-0.629 2.004,-1.233 1.505,-2.354 3.959,-2.544 6.283,-2.876 4.506,-0.643 9.066,-1.16 13.337,-2.725 4.787,-1.754 9.41,-3.958 14.098,-5.983 3.484,-1.504 6.483,-3.748 9.388,-6.146 1.027,-0.847 2.048,-1.797 3.607,-1.597 0.407,0.052 0.98,-0.221 1.284,-0.533 1.072,-1.101 2.278,-1.003 3.675,-0.864 0.869,0.085 1.499,0.292 2.119,0.822 1.602,1.373 3.446,2.243 5.519,2.653 1.311,0.26 2.23,1.031 3.071,2.093 2.032,2.56 3.231,5.464 3.824,8.598 C 1.294,4.036 1.347,7.073 3.465,7.377 3.811,6.501 4.224,5.458 4.523,4.699 3.844,3.446 3.258,2.355 2.662,1.271 1.82,-0.26 0.952,-1.775 0.129,-3.315 c -1.372,-2.568 -2.348,-5.222 -1.479,-8.408 0.921,-0.72 2.106,-0.416 3.189,0.077 7.641,3.481 15.711,3.38 23.775,2.624 4.185,-0.394 8.302,-1.511 12.449,-2.305 1.488,-0.284 2.871,-0.312 4.429,0.144 2.024,0.593 4.265,0.818 6.372,0.663 3.314,-0.244 6.602,-0.892 9.886,-1.45 3.784,-0.643 7.582,-0.731 11.363,-0.202 1.098,0.154 2.106,0.947 3.528,1.625 -0.366,-0.98 -0.592,-1.588 -0.849,-2.276 1.821,-1.085 3.512,0.68 5.421,-0.171 0.27,-0.498 0.664,-1.225 1.195,-2.205 -1.545,-0.515 -2.958,-1.017 -4.391,-1.454 -2.444,-0.747 -4.905,-1.442 -7.352,-2.178 -3.781,-1.138 -7.19,-3.104 -10.589,-5.022 -3.041,-1.716 -6.325,-2.22 -9.658,-2.483 -5.489,-0.433 -10.997,-0.636 -16.495,-0.962 -1.276,-0.075 -2.544,-0.338 -3.818,-0.363 -1.019,-0.02 -2.138,-0.039 -3.05,0.337 -7.797,3.211 -15.742,3.134 -23.778,1.214 -2.017,-0.483 -4.012,-1.085 -5.972,-1.761 -0.71,-0.245 -1.466,-0.74 -1.897,-1.34 -2.226,-3.089 -4.85,-5.625 -8.269,-7.449 -3.721,-1.987 -6.135,-5.269 -7.81,-9.118 -0.891,-2.047 -1.91,-4.038 -2.862,-6.059 -0.203,-0.432 -0.479,-0.867 -0.536,-1.324 -0.515,-4.135 -3.806,-6.738 -5.588,-10.17 -0.043,-0.084 -0.288,-0.064 -0.44,-0.091 z"
             style="fill:#b3b3b3;fill-opacity:1;fill-rule:nonzero;stroke:none"
             id="path30" /></g><g
           id="g32"
           transform="translate(248.7638,100.6722)"
           style="fill:#b3b3b3"><path
             d="m 0,0 c -2.208,-2.17 -3.269,-4.502 -4.691,-7.324 1.153,0.254 2.151,0.2 2.332,0.558 C -1.347,-4.764 -0.353,-2.719 0,0 m -28.941,-61.695 c 0.679,2.704 1.515,5.365 1.324,8.234 -0.081,1.226 0.611,2.331 1.684,3.025 1.546,1.001 2.612,2.423 3.242,4.065 1.315,3.422 2.57,6.876 3.604,10.39 0.643,2.183 0.525,4.437 -0.982,6.404 -0.331,0.432 -0.599,0.978 -0.703,1.51 -0.539,2.738 -2.291,4.467 -4.574,5.848 -10.376,6.277 -21.45,10.28 -33.717,10.364 -2.607,0.017 -4.768,1.222 -6.977,2.299 -3.294,1.608 -6.51,3.25 -10.136,4.194 -6.791,1.767 -12.663,5.362 -17.329,10.651 -3.476,3.939 -7.819,6.813 -11.765,10.172 -0.528,0.45 -1.074,0.88 -1.922,1.571 0.79,0.216 1.185,0.394 1.591,0.422 1.097,0.077 2.199,0.121 3.298,0.113 0.442,-0.004 1.027,-0.033 1.299,-0.301 0.916,-0.905 1.982,-0.941 3.119,-0.778 2.208,0.317 4.295,-0.028 6.264,-1.086 1.213,-0.651 2.512,-0.831 3.885,-0.99 2.827,-0.326 5.659,-0.802 8.417,-1.501 4.864,-1.234 9.621,-2.815 14.324,-4.604 3.78,-1.438 7.757,-2.36 11.654,-3.483 3.832,-1.104 7.683,-2.139 11.506,-3.271 2.754,-0.815 5.483,-1.716 8.209,-2.626 1.206,-0.403 2.418,-0.831 3.55,-1.402 3.732,-1.878 7.401,-3.891 11.14,-5.74 1.636,-0.808 3.414,-2.119 5.597,-1.389 0.403,0.136 1,-0.302 1.603,-0.509 0.253,0.399 0.562,0.697 0.642,1.047 0.408,1.802 1.256,2.839 3.328,2.38 0.974,-0.214 1.611,0.466 2.079,1.291 1.77,3.117 3.58,6.209 5.327,9.338 C 0.245,5.026 0.912,5.962 2.384,6.285 2.561,5.793 2.97,5.248 2.874,4.816 2.448,2.902 2.392,0.947 1.296,-0.876 c -1.128,-1.877 -1.662,-4.11 -2.517,-6.346 1.493,-0.564 1.902,-1.373 1.344,-2.797 -0.373,-0.951 -0.226,-2.106 -0.317,-3.241 0.911,-0.263 1.5,-0.543 2.108,-0.592 3.873,-0.311 7.754,-0.746 11.637,-0.231 4.815,0.64 9.543,-0.261 14.308,-0.626 6.642,-0.51 12.994,-2.522 19.53,-3.55 4.173,-0.655 8.401,-0.976 12.571,-1.65 2.663,-0.43 5.238,-1.394 7.9,-1.83 4.523,-0.741 8.789,-2.909 13.526,-2.438 0.158,0.016 0.349,0.108 0.468,0.049 2.474,-1.216 4.944,-2.44 7.4,-3.693 0.162,-0.083 0.206,-0.399 0.422,-0.851 -0.847,-0.184 -1.587,-0.368 -2.336,-0.505 -4.871,-0.888 -9.749,-1.745 -14.613,-2.669 -0.849,-0.161 -1.675,-0.532 -2.464,-0.907 -6.241,-2.961 -12.829,-3.423 -19.459,-2.157 -3.431,0.654 -6.808,0.733 -10.233,0.723 -3.287,-0.01 -6.426,0.245 -9.526,1.734 -6.122,2.939 -12.725,4.272 -19.485,4.596 -4.142,0.198 -8.3,0.088 -12.45,0.03 -1.917,-0.027 -3.478,-0.731 -4.565,-2.526 -1.113,-1.836 -2.884,-3.019 -5.007,-3.449 -1.548,-0.314 -2.625,-1.2 -3.413,-2.429 -1.422,-2.218 -2.784,-4.479 -4.074,-6.777 -1.21,-2.153 -2.296,-4.377 -3.437,-6.57 -0.295,-0.567 -0.759,-1.106 -0.856,-1.705 -0.472,-2.918 -2.242,-5.042 -4.125,-7.134 -0.928,-1.03 -1.757,-2.15 -2.631,-3.23 z"
             style="fill:#b3b3b3;fill-opacity:1;fill-rule:nonzero;stroke:none"
             id="path34" /></g><g
           id="g36"
           transform="translate(78.6163,56.8343)"
           style="fill:#b3b3b3"><path
             d="M 0,0 C 2.185,-0.144 2.629,0.662 1.779,2.584 1.215,1.765 0.705,1.023 0,0 m -75.095,31.693 c 0.879,-1.234 1.93,-2.383 2.602,-3.722 1.392,-2.772 3.806,-3.937 6.58,-4.677 0.308,-0.082 0.635,-0.137 0.913,-0.28 3.12,-1.618 6.574,-2.31 9.818,-3.555 3.769,-1.445 7.566,-2.887 10.593,-5.841 1.501,-1.463 3.775,-1.206 5.715,-0.951 2.072,0.273 3.918,-0.09 5.83,-0.783 5.739,-2.081 10.482,-5.716 15.069,-9.575 1.138,-0.956 1.919,-2.327 2.932,-3.444 1.571,-1.733 3.512,-2.773 5.904,-2.471 1.172,0.148 2.446,0.406 3.418,1.02 2.017,1.273 4.702,1.796 5.587,4.478 C 0.137,2.715 0.339,3.563 0.525,4.411 0.932,6.271 1.479,8 3.907,8.347 4.365,7.578 4.885,6.704 5.559,5.573 4.791,3.971 3.929,2.183 3.079,0.389 2.735,-0.336 2.257,-1.161 2.987,-1.825 c 1.106,-1.007 1.086,-2.192 0.716,-3.524 2.026,-0.943 3.816,-0.602 5.474,0.529 6.174,4.211 13.129,5.623 20.433,5.607 1.536,-0.003 3.095,-0.616 4.6,-1.084 1.742,-0.539 3.418,-1.29 5.163,-1.816 0.538,-0.162 1.281,-0.042 1.807,0.209 3.183,1.52 6.565,1.879 10.023,1.868 2.376,-0.008 4.754,0.037 7.127,-0.061 3.325,-0.136 6.643,-0.443 9.968,-0.548 0.989,-0.031 2.031,0.261 2.977,0.603 1.108,0.401 2.138,1.02 3.384,1.329 -0.587,-0.535 -1.174,-1.071 -1.899,-1.732 1.816,-1.446 3.957,0.283 5.679,-0.771 -0.36,-1.139 -1.234,-1.385 -2.317,-1.517 -2.297,-0.283 -4.6,-0.598 -6.861,-1.081 -3.565,-0.761 -6.693,-2.554 -9.807,-4.375 -1.371,-0.802 -2.795,-1.636 -4.306,-2.047 -4.079,-1.112 -8.234,-1.94 -12.326,-3.008 -2.544,-0.664 -5.031,-1.547 -7.534,-2.362 -1.215,-0.396 -2.379,-0.998 -3.619,-1.255 -1.059,-0.22 -2.261,-0.338 -3.282,-0.062 -9.575,2.588 -18.179,0.162 -26.263,-4.966 -0.693,-0.438 -1.218,-1.241 -1.65,-1.974 -1.751,-2.973 -3.93,-5.393 -7.297,-6.627 -0.895,-0.328 -1.76,-1.15 -2.292,-1.969 -1.261,-1.937 -2.365,-3.983 -3.435,-6.037 -0.922,-1.768 -1.714,-3.605 -2.553,-5.416 -0.167,-0.361 -0.4,-0.739 -0.416,-1.118 -0.178,-4.279 -3.391,-7.324 -4.534,-11.207 -0.054,-0.183 -0.319,-0.302 -0.649,-0.597 -0.053,0.541 -0.174,0.918 -0.112,1.262 0.451,2.514 0.756,5.012 0.505,7.599 -0.087,0.9 0.532,1.998 1.108,2.808 2.358,3.313 3.863,6.962 4.739,10.914 0.61,2.759 0.637,5.313 -1.157,7.767 -0.76,1.04 -1.097,2.479 -1.336,3.791 -0.338,1.863 -1.008,3.518 -2.158,5.004 -5.535,7.153 -12.559,11.986 -21.512,13.822 -0.234,0.048 -0.468,0.173 -0.698,0.162 -3.276,-0.154 -5.544,1.67 -7.658,3.839 -2.349,2.407 -4.957,4.475 -7.704,6.44 -2.844,2.033 -5.449,4.458 -7.898,6.967 -1.537,1.575 -2.736,3.538 -3.832,5.473 -1.564,2.761 -3.955,4.552 -6.507,6.236 -1.097,0.723 -2.649,1.061 -2.458,2.96 0.036,0.362 -0.673,0.801 -1.236,1.422 2.006,-0.072 3.184,-1.382 4.855,-2.204 -0.465,1.589 -0.85,2.909 -1.236,4.228 z"
             style="fill:#b3b3b3;fill-opacity:1;fill-rule:nonzero;stroke:none"
             id="path38" /></g><g
           id="g40"
           transform="translate(813.9415,400.8045)"
           style="fill:#b3b3b3"><path
             d="M 0,0 -0.021,-0.369 C 0.007,-0.266 0.035,-0.163 0.06,-0.057 0.057,-0.054 0,0 0,0"
             style="fill:#b3b3b3;fill-opacity:1;fill-rule:nonzero;stroke:none"
             id="path42" /></g><g
           id="g44"
           transform="translate(389.127,84.7709)"
           style="fill:#b3b3b3"><path
             d="m 0,0 c 0.025,-0.106 0.05,-0.213 0.076,-0.319 0.005,0.05 0.029,0.109 0.011,0.149 -0.025,0.056 -0.081,0.097 -0.129,0.145 C -0.049,-0.025 0,0 0,0"
             style="fill:#b3b3b3;fill-opacity:1;fill-rule:nonzero;stroke:none"
             id="path46" /></g><g
           id="g48"
           transform="translate(219.7657,39.0247)"
           style="fill:#b3b3b3"><path
             d="M 0,0 C 0.021,-0.135 0.043,-0.27 0.065,-0.404 0.066,-0.288 0.066,-0.173 0.062,-0.052 0.057,-0.048 0,0 0,0"
             style="fill:#b3b3b3;fill-opacity:1;fill-rule:nonzero;stroke:none"
             id="path50" /></g><g
           id="g52"
           transform="translate(3.6197,88.4906)"
           style="fill:#b3b3b3"><path
             d="m 0,0 c -0.05,-0.018 -0.1,-0.036 -0.15,-0.054 0.02,0.029 0.04,0.058 0.055,0.089 C -0.099,0.037 0,0 0,0"
             style="fill:#b3b3b3;fill-opacity:1;fill-rule:nonzero;stroke:none"
             id="path54" /></g></g></g></g></svg>
